<svg xmlns="http://www.w3.org/2000/svg" width="203.35" height="188.082" viewBox="0 0 203.35 188.082">
  <g id="Group_2359" data-name="Group 2359" transform="translate(-258.954 -752.748)">
    <g id="Group_2329" data-name="Group 2329">
      <g id="Group_2303" data-name="Group 2303">
        <path id="Path_1952" data-name="Path 1952" d="M310.39,765.4,298.485,777.3l12.65.743,11.905-11.905Z" fill="#da6700"/>
      </g>
      <g id="Group_2304" data-name="Group 2304">
        <path id="Path_1953" data-name="Path 1953" d="M309.649,752.747l-11.905,11.905.743,12.65L310.392,765.4Z" fill="#f7a335"/>
      </g>
      <g id="Group_2307" data-name="Group 2307">
        <g id="Group_2305" data-name="Group 2305">
          <path id="Path_1954" data-name="Path 1954" d="M295.228,783.674l-9.1,9.1,15.82,6.718,9.1-9.1Z" fill="#da6700"/>
        </g>
        <g id="Group_2306" data-name="Group 2306">
          <path id="Path_1955" data-name="Path 1955" d="M288.511,767.853l-9.1,9.1,6.718,15.82,9.1-9.1Z" fill="#f7a335"/>
        </g>
      </g>
      <g id="Group_2310" data-name="Group 2310">
        <g id="Group_2308" data-name="Group 2308">
          <path id="Path_1956" data-name="Path 1956" d="M283.009,802.474l-6.435,11.145,17.019,2.395,6.435-11.146Z" fill="#da6700"/>
        </g>
        <g id="Group_2309" data-name="Group 2309">
          <path id="Path_1957" data-name="Path 1957" d="M272.426,788.93l-6.435,11.146,10.584,13.542,6.435-11.146Z" fill="#f7a335"/>
        </g>
      </g>
      <g id="Group_2313" data-name="Group 2313">
        <g id="Group_2311" data-name="Group 2311">
          <path id="Path_1958" data-name="Path 1958" d="M276.072,823.8l-3.331,12.431,17.059-2.092,3.331-12.431Z" fill="#da6700"/>
        </g>
        <g id="Group_2312" data-name="Group 2312">
          <path id="Path_1959" data-name="Path 1959" d="M262.345,813.453l-3.331,12.431,13.728,10.341,3.331-12.431Z" fill="#f7a335"/>
        </g>
      </g>
      <g id="Group_2316" data-name="Group 2316">
        <g id="Group_2314" data-name="Group 2314">
          <path id="Path_1960" data-name="Path 1960" d="M274.89,846.187v12.87l15.937-6.436v-12.87Z" fill="#da6700"/>
        </g>
        <g id="Group_2315" data-name="Group 2315">
          <path id="Path_1961" data-name="Path 1961" d="M258.954,839.749v12.87l15.937,6.436v-12.87Z" fill="#f7a335"/>
        </g>
      </g>
      <g id="Group_2319" data-name="Group 2319">
        <g id="Group_2317" data-name="Group 2317">
          <path id="Path_1962" data-name="Path 1962" d="M279.544,868.12l3.331,12.431L296.6,870.211l-3.331-12.431Z" fill="#da6700"/>
        </g>
        <g id="Group_2318" data-name="Group 2318">
          <path id="Path_1963" data-name="Path 1963" d="M262.484,866.027l3.331,12.431,17.059,2.092-3.331-12.431Z" fill="#f7a335"/>
        </g>
      </g>
      <g id="Group_2322" data-name="Group 2322">
        <g id="Group_2320" data-name="Group 2320">
          <path id="Path_1964" data-name="Path 1964" d="M289.716,888.1l6.435,11.146,10.584-13.542L300.3,874.561Z" fill="#da6700"/>
        </g>
        <g id="Group_2321" data-name="Group 2321">
          <path id="Path_1965" data-name="Path 1965" d="M272.7,890.5l6.435,11.146,17.019-2.395L289.715,888.1Z" fill="#f7a335"/>
        </g>
      </g>
      <g id="Group_2325" data-name="Group 2325">
        <g id="Group_2323" data-name="Group 2323">
          <path id="Path_1966" data-name="Path 1966" d="M304.713,904.771l9.1,9.1,6.718-15.82-9.1-9.1Z" fill="#da6700"/>
        </g>
        <g id="Group_2324" data-name="Group 2324">
          <path id="Path_1967" data-name="Path 1967" d="M288.892,911.488l9.1,9.1,15.82-6.718-9.1-9.1Z" fill="#f7a335"/>
        </g>
      </g>
      <g id="Group_2328" data-name="Group 2328">
        <g id="Group_2326" data-name="Group 2326">
          <path id="Path_1968" data-name="Path 1968" d="M323.513,916.99l11.145,6.435,2.395-17.019-11.146-6.435Z" fill="#da6700"/>
        </g>
        <g id="Group_2327" data-name="Group 2327">
          <path id="Path_1969" data-name="Path 1969" d="M309.97,927.573l11.145,6.435,13.542-10.584-11.146-6.435Z" fill="#f7a335"/>
        </g>
      </g>
    </g>
    <g id="Group_2356" data-name="Group 2356">
      <g id="Group_2330" data-name="Group 2330">
        <path id="Path_1970" data-name="Path 1970" d="M410.867,765.4,422.772,777.3l-12.65.743-11.905-11.905Z" fill="#da6700"/>
      </g>
      <g id="Group_2331" data-name="Group 2331">
        <path id="Path_1971" data-name="Path 1971" d="M411.608,752.747l11.905,11.905-.743,12.65L410.865,765.4Z" fill="#f7a335"/>
      </g>
      <g id="Group_2334" data-name="Group 2334">
        <g id="Group_2332" data-name="Group 2332">
          <path id="Path_1972" data-name="Path 1972" d="M426.029,783.674l9.1,9.1-15.82,6.718-9.1-9.1Z" fill="#da6700"/>
        </g>
        <g id="Group_2333" data-name="Group 2333">
          <path id="Path_1973" data-name="Path 1973" d="M432.746,767.853l9.1,9.1-6.718,15.82-9.1-9.1Z" fill="#f7a335"/>
        </g>
      </g>
      <g id="Group_2337" data-name="Group 2337">
        <g id="Group_2335" data-name="Group 2335">
          <path id="Path_1974" data-name="Path 1974" d="M438.248,802.474l6.435,11.145-17.019,2.395-6.435-11.146Z" fill="#da6700"/>
        </g>
        <g id="Group_2336" data-name="Group 2336">
          <path id="Path_1975" data-name="Path 1975" d="M448.831,788.93l6.435,11.146-10.584,13.542-6.435-11.146Z" fill="#f7a335"/>
        </g>
      </g>
      <g id="Group_2340" data-name="Group 2340">
        <g id="Group_2338" data-name="Group 2338">
          <path id="Path_1976" data-name="Path 1976" d="M445.185,823.8l3.331,12.431-17.059-2.092L428.126,821.7Z" fill="#da6700"/>
        </g>
        <g id="Group_2339" data-name="Group 2339">
          <path id="Path_1977" data-name="Path 1977" d="M458.912,813.453l3.331,12.431-13.728,10.341-3.331-12.431Z" fill="#f7a335"/>
        </g>
      </g>
      <g id="Group_2343" data-name="Group 2343">
        <g id="Group_2341" data-name="Group 2341">
          <path id="Path_1978" data-name="Path 1978" d="M446.367,846.187v12.87l-15.937-6.436v-12.87Z" fill="#da6700"/>
        </g>
        <g id="Group_2342" data-name="Group 2342">
          <path id="Path_1979" data-name="Path 1979" d="M462.3,839.749v12.87l-15.937,6.436v-12.87Z" fill="#f7a335"/>
        </g>
      </g>
      <g id="Group_2346" data-name="Group 2346">
        <g id="Group_2344" data-name="Group 2344">
          <path id="Path_1980" data-name="Path 1980" d="M441.713,868.12l-3.331,12.431-13.728-10.341,3.331-12.431Z" fill="#da6700"/>
        </g>
        <g id="Group_2345" data-name="Group 2345">
          <path id="Path_1981" data-name="Path 1981" d="M458.773,866.027l-3.331,12.431-17.059,2.092,3.331-12.431Z" fill="#f7a335"/>
        </g>
      </g>
      <g id="Group_2349" data-name="Group 2349">
        <g id="Group_2347" data-name="Group 2347">
          <path id="Path_1982" data-name="Path 1982" d="M431.541,888.1l-6.435,11.146-10.584-13.542,6.435-11.146Z" fill="#da6700"/>
        </g>
        <g id="Group_2348" data-name="Group 2348">
          <path id="Path_1983" data-name="Path 1983" d="M448.561,890.5l-6.435,11.146-17.019-2.395,6.435-11.146Z" fill="#f7a335"/>
        </g>
      </g>
      <g id="Group_2352" data-name="Group 2352">
        <g id="Group_2350" data-name="Group 2350">
          <path id="Path_1984" data-name="Path 1984" d="M416.544,904.771l-9.1,9.1-6.718-15.82,9.1-9.1Z" fill="#da6700"/>
        </g>
        <g id="Group_2351" data-name="Group 2351">
          <path id="Path_1985" data-name="Path 1985" d="M432.365,911.488l-9.1,9.1-15.82-6.718,9.1-9.1Z" fill="#f7a335"/>
        </g>
      </g>
      <g id="Group_2355" data-name="Group 2355">
        <g id="Group_2353" data-name="Group 2353">
          <path id="Path_1986" data-name="Path 1986" d="M397.744,916.99,386.6,923.425,384.2,906.405l11.145-6.435Z" fill="#da6700"/>
        </g>
        <g id="Group_2354" data-name="Group 2354">
          <path id="Path_1987" data-name="Path 1987" d="M411.287,927.573l-11.146,6.435L386.6,923.424l11.145-6.435Z" fill="#f7a335"/>
        </g>
      </g>
    </g>
    <g id="Group_2357" data-name="Group 2357">
      <rect id="Rectangle_1262" data-name="Rectangle 1262" width="32.246" height="6.435" transform="matrix(0.707, -0.707, 0.707, 0.707, 346.844, 936.281)" fill="#f7a335"/>
    </g>
    <g id="Group_2358" data-name="Group 2358">
      <rect id="Rectangle_1263" data-name="Rectangle 1263" width="6.435" height="32.246" transform="translate(346.843 918.029) rotate(-45)" fill="#da6700"/>
    </g>
  </g>
</svg>
