<svg xmlns="http://www.w3.org/2000/svg" width="203.35" height="188.082" viewBox="0 0 203.35 188.082">
  <g id="Group_2416" data-name="Group 2416" transform="translate(-525.279 -752.748)">
    <g id="Group_2386" data-name="Group 2386">
      <g id="Group_2360" data-name="Group 2360">
        <path id="Path_1988" data-name="Path 1988" d="M576.716,765.4,564.81,777.3l12.65.743,11.905-11.905Z" fill="#7c7b7a"/>
      </g>
      <g id="Group_2361" data-name="Group 2361">
        <path id="Path_1989" data-name="Path 1989" d="M575.974,752.747l-11.905,11.905.743,12.65L576.717,765.4Z" fill="#dedede"/>
      </g>
      <g id="Group_2364" data-name="Group 2364">
        <g id="Group_2362" data-name="Group 2362">
          <path id="Path_1990" data-name="Path 1990" d="M561.553,783.674l-9.1,9.1,15.82,6.718,9.1-9.1Z" fill="#7c7b7a"/>
        </g>
        <g id="Group_2363" data-name="Group 2363">
          <path id="Path_1991" data-name="Path 1991" d="M554.836,767.853l-9.1,9.1,6.718,15.82,9.1-9.1Z" fill="#dedede"/>
        </g>
      </g>
      <g id="Group_2367" data-name="Group 2367">
        <g id="Group_2365" data-name="Group 2365">
          <path id="Path_1992" data-name="Path 1992" d="M549.334,802.474,542.9,813.619l17.019,2.395,6.435-11.146Z" fill="#7c7b7a"/>
        </g>
        <g id="Group_2366" data-name="Group 2366">
          <path id="Path_1993" data-name="Path 1993" d="M538.751,788.93l-6.435,11.146L542.9,813.618l6.435-11.146Z" fill="#dedede"/>
        </g>
      </g>
      <g id="Group_2370" data-name="Group 2370">
        <g id="Group_2368" data-name="Group 2368">
          <path id="Path_1994" data-name="Path 1994" d="M542.4,823.8l-3.331,12.431,17.059-2.092,3.331-12.431Z" fill="#7c7b7a"/>
        </g>
        <g id="Group_2369" data-name="Group 2369">
          <path id="Path_1995" data-name="Path 1995" d="M528.67,813.453l-3.331,12.431,13.728,10.341,3.331-12.431Z" fill="#dedede"/>
        </g>
      </g>
      <g id="Group_2373" data-name="Group 2373">
        <g id="Group_2371" data-name="Group 2371">
          <path id="Path_1996" data-name="Path 1996" d="M541.216,846.187v12.87l15.937-6.436v-12.87Z" fill="#7c7b7a"/>
        </g>
        <g id="Group_2372" data-name="Group 2372">
          <path id="Path_1997" data-name="Path 1997" d="M525.279,839.749v12.87l15.937,6.436v-12.87Z" fill="#dedede"/>
        </g>
      </g>
      <g id="Group_2376" data-name="Group 2376">
        <g id="Group_2374" data-name="Group 2374">
          <path id="Path_1998" data-name="Path 1998" d="M545.869,868.12l3.331,12.431,13.728-10.341L559.6,857.779Z" fill="#7c7b7a"/>
        </g>
        <g id="Group_2375" data-name="Group 2375">
          <path id="Path_1999" data-name="Path 1999" d="M528.809,866.027l3.331,12.431L549.2,880.55l-3.331-12.431Z" fill="#dedede"/>
        </g>
      </g>
      <g id="Group_2379" data-name="Group 2379">
        <g id="Group_2377" data-name="Group 2377">
          <path id="Path_2000" data-name="Path 2000" d="M556.041,888.1l6.435,11.146,10.584-13.542-6.435-11.146Z" fill="#7c7b7a"/>
        </g>
        <g id="Group_2378" data-name="Group 2378">
          <path id="Path_2001" data-name="Path 2001" d="M539.021,890.5l6.435,11.146,17.019-2.395L556.04,888.1Z" fill="#dedede"/>
        </g>
      </g>
      <g id="Group_2382" data-name="Group 2382">
        <g id="Group_2380" data-name="Group 2380">
          <path id="Path_2002" data-name="Path 2002" d="M571.038,904.771l9.1,9.1,6.718-15.82-9.1-9.1Z" fill="#7c7b7a"/>
        </g>
        <g id="Group_2381" data-name="Group 2381">
          <path id="Path_2003" data-name="Path 2003" d="M555.217,911.488l9.1,9.1,15.82-6.718-9.1-9.1Z" fill="#dedede"/>
        </g>
      </g>
      <g id="Group_2385" data-name="Group 2385">
        <g id="Group_2383" data-name="Group 2383">
          <path id="Path_2004" data-name="Path 2004" d="M589.838,916.99l11.146,6.435,2.395-17.019-11.146-6.435Z" fill="#7c7b7a"/>
        </g>
        <g id="Group_2384" data-name="Group 2384">
          <path id="Path_2005" data-name="Path 2005" d="M576.3,927.573l11.146,6.435,13.542-10.584-11.146-6.435Z" fill="#dedede"/>
        </g>
      </g>
    </g>
    <g id="Group_2413" data-name="Group 2413">
      <g id="Group_2387" data-name="Group 2387">
        <path id="Path_2006" data-name="Path 2006" d="M677.192,765.4,689.1,777.3l-12.65.743-11.905-11.905Z" fill="#7c7b7a"/>
      </g>
      <g id="Group_2388" data-name="Group 2388">
        <path id="Path_2007" data-name="Path 2007" d="M677.934,752.747l11.905,11.905L689.1,777.3,677.19,765.4Z" fill="#dedede"/>
      </g>
      <g id="Group_2391" data-name="Group 2391">
        <g id="Group_2389" data-name="Group 2389">
          <path id="Path_2008" data-name="Path 2008" d="M692.355,783.674l9.1,9.1-15.82,6.718-9.1-9.1Z" fill="#7c7b7a"/>
        </g>
        <g id="Group_2390" data-name="Group 2390">
          <path id="Path_2009" data-name="Path 2009" d="M699.071,767.853l9.1,9.1-6.718,15.82-9.1-9.1Z" fill="#dedede"/>
        </g>
      </g>
      <g id="Group_2394" data-name="Group 2394">
        <g id="Group_2392" data-name="Group 2392">
          <path id="Path_2010" data-name="Path 2010" d="M704.574,802.474l6.435,11.145-17.019,2.395-6.435-11.146Z" fill="#7c7b7a"/>
        </g>
        <g id="Group_2393" data-name="Group 2393">
          <path id="Path_2011" data-name="Path 2011" d="M715.156,788.93l6.435,11.146-10.584,13.542-6.435-11.146Z" fill="#dedede"/>
        </g>
      </g>
      <g id="Group_2397" data-name="Group 2397">
        <g id="Group_2395" data-name="Group 2395">
          <path id="Path_2012" data-name="Path 2012" d="M711.51,823.8l3.331,12.431-17.059-2.092L694.451,821.7Z" fill="#7c7b7a"/>
        </g>
        <g id="Group_2396" data-name="Group 2396">
          <path id="Path_2013" data-name="Path 2013" d="M725.238,813.453l3.331,12.431-13.728,10.341-3.331-12.431Z" fill="#dedede"/>
        </g>
      </g>
      <g id="Group_2400" data-name="Group 2400">
        <g id="Group_2398" data-name="Group 2398">
          <path id="Path_2014" data-name="Path 2014" d="M712.692,846.187v12.87l-15.937-6.436v-12.87Z" fill="#7c7b7a"/>
        </g>
        <g id="Group_2399" data-name="Group 2399">
          <path id="Path_2015" data-name="Path 2015" d="M728.629,839.749v12.87l-15.937,6.436v-12.87Z" fill="#dedede"/>
        </g>
      </g>
      <g id="Group_2403" data-name="Group 2403">
        <g id="Group_2401" data-name="Group 2401">
          <path id="Path_2016" data-name="Path 2016" d="M708.038,868.12l-3.331,12.431L690.98,870.211l3.331-12.431Z" fill="#7c7b7a"/>
        </g>
        <g id="Group_2402" data-name="Group 2402">
          <path id="Path_2017" data-name="Path 2017" d="M725.1,866.027l-3.331,12.431-17.059,2.092,3.331-12.431Z" fill="#dedede"/>
        </g>
      </g>
      <g id="Group_2406" data-name="Group 2406">
        <g id="Group_2404" data-name="Group 2404">
          <path id="Path_2018" data-name="Path 2018" d="M697.867,888.1l-6.435,11.146-10.584-13.542,6.435-11.146Z" fill="#7c7b7a"/>
        </g>
        <g id="Group_2405" data-name="Group 2405">
          <path id="Path_2019" data-name="Path 2019" d="M714.887,890.5l-6.435,11.146-17.019-2.395,6.435-11.146Z" fill="#dedede"/>
        </g>
      </g>
      <g id="Group_2409" data-name="Group 2409">
        <g id="Group_2407" data-name="Group 2407">
          <path id="Path_2020" data-name="Path 2020" d="M682.869,904.771l-9.1,9.1-6.718-15.82,9.1-9.1Z" fill="#7c7b7a"/>
        </g>
        <g id="Group_2408" data-name="Group 2408">
          <path id="Path_2021" data-name="Path 2021" d="M698.69,911.488l-9.1,9.1-15.82-6.718,9.1-9.1Z" fill="#dedede"/>
        </g>
      </g>
      <g id="Group_2412" data-name="Group 2412">
        <g id="Group_2410" data-name="Group 2410">
          <path id="Path_2022" data-name="Path 2022" d="M664.069,916.99l-11.145,6.435-2.395-17.019,11.146-6.435Z" fill="#7c7b7a"/>
        </g>
        <g id="Group_2411" data-name="Group 2411">
          <path id="Path_2023" data-name="Path 2023" d="M677.613,927.573l-11.146,6.435-13.542-10.584,11.146-6.435Z" fill="#dedede"/>
        </g>
      </g>
    </g>
    <g id="Group_2414" data-name="Group 2414">
      <rect id="Rectangle_1264" data-name="Rectangle 1264" width="32.246" height="6.435" transform="matrix(0.707, -0.707, 0.707, 0.707, 613.169, 936.281)" fill="#dedede"/>
    </g>
    <g id="Group_2415" data-name="Group 2415">
      <rect id="Rectangle_1265" data-name="Rectangle 1265" width="6.435" height="32.246" transform="translate(613.168 918.029) rotate(-45)" fill="#7c7b7a"/>
    </g>
  </g>
</svg>
