<svg xmlns="http://www.w3.org/2000/svg" width="203.35" height="188.082" viewBox="0 0 203.35 188.082">
  <g id="Group_2302" data-name="Group 2302" transform="translate(-22 -752.748)">
    <g id="Group_2272" data-name="Group 2272">
      <g id="Group_2246" data-name="Group 2246">
        <path id="Path_1916" data-name="Path 1916" d="M73.437,765.4,61.531,777.3l12.65.743,11.905-11.905Z" fill="#523b21"/>
      </g>
      <g id="Group_2247" data-name="Group 2247">
        <path id="Path_1917" data-name="Path 1917" d="M72.7,752.747,60.79,764.653l.743,12.65L73.438,765.4Z" fill="#8a6f2c"/>
      </g>
      <g id="Group_2250" data-name="Group 2250">
        <g id="Group_2248" data-name="Group 2248">
          <path id="Path_1918" data-name="Path 1918" d="M58.274,783.674l-9.1,9.1,15.82,6.718,9.1-9.1Z" fill="#523b21"/>
        </g>
        <g id="Group_2249" data-name="Group 2249">
          <path id="Path_1919" data-name="Path 1919" d="M51.557,767.853l-9.1,9.1,6.718,15.82,9.1-9.1Z" fill="#8a6f2c"/>
        </g>
      </g>
      <g id="Group_2253" data-name="Group 2253">
        <g id="Group_2251" data-name="Group 2251">
          <path id="Path_1920" data-name="Path 1920" d="M46.055,802.474,39.62,813.619l17.019,2.395,6.435-11.146Z" fill="#523b21"/>
        </g>
        <g id="Group_2252" data-name="Group 2252">
          <path id="Path_1921" data-name="Path 1921" d="M35.472,788.93l-6.435,11.146,10.584,13.542,6.435-11.146Z" fill="#8a6f2c"/>
        </g>
      </g>
      <g id="Group_2256" data-name="Group 2256">
        <g id="Group_2254" data-name="Group 2254">
          <path id="Path_1922" data-name="Path 1922" d="M39.118,823.8l-3.331,12.431,17.059-2.092L56.178,821.7Z" fill="#523b21"/>
        </g>
        <g id="Group_2255" data-name="Group 2255">
          <path id="Path_1923" data-name="Path 1923" d="M25.391,813.453,22.06,825.884l13.728,10.341,3.331-12.431Z" fill="#8a6f2c"/>
        </g>
      </g>
      <g id="Group_2259" data-name="Group 2259">
        <g id="Group_2257" data-name="Group 2257">
          <path id="Path_1924" data-name="Path 1924" d="M37.937,846.187v12.87l15.937-6.436v-12.87Z" fill="#523b21"/>
        </g>
        <g id="Group_2258" data-name="Group 2258">
          <path id="Path_1925" data-name="Path 1925" d="M22,839.749v12.87l15.937,6.436v-12.87Z" fill="#8a6f2c"/>
        </g>
      </g>
      <g id="Group_2262" data-name="Group 2262">
        <g id="Group_2260" data-name="Group 2260">
          <path id="Path_1926" data-name="Path 1926" d="M42.59,868.12l3.331,12.431,13.728-10.341-3.331-12.431Z" fill="#523b21"/>
        </g>
        <g id="Group_2261" data-name="Group 2261">
          <path id="Path_1927" data-name="Path 1927" d="M25.531,866.027l3.331,12.431,17.059,2.092L42.59,868.119Z" fill="#8a6f2c"/>
        </g>
      </g>
      <g id="Group_2265" data-name="Group 2265">
        <g id="Group_2263" data-name="Group 2263">
          <path id="Path_1928" data-name="Path 1928" d="M52.762,888.1,59.2,899.248l10.584-13.542-6.435-11.146Z" fill="#523b21"/>
        </g>
        <g id="Group_2264" data-name="Group 2264">
          <path id="Path_1929" data-name="Path 1929" d="M35.742,890.5l6.435,11.146L59.2,899.246,52.761,888.1Z" fill="#8a6f2c"/>
        </g>
      </g>
      <g id="Group_2268" data-name="Group 2268">
        <g id="Group_2266" data-name="Group 2266">
          <path id="Path_1930" data-name="Path 1930" d="M67.759,904.771l9.1,9.1,6.718-15.82-9.1-9.1Z" fill="#523b21"/>
        </g>
        <g id="Group_2267" data-name="Group 2267">
          <path id="Path_1931" data-name="Path 1931" d="M51.938,911.488l9.1,9.1,15.82-6.718-9.1-9.1Z" fill="#8a6f2c"/>
        </g>
      </g>
      <g id="Group_2271" data-name="Group 2271">
        <g id="Group_2269" data-name="Group 2269">
          <path id="Path_1932" data-name="Path 1932" d="M86.559,916.99,97.7,923.425l2.395-17.019-11.145-6.435Z" fill="#523b21"/>
        </g>
        <g id="Group_2270" data-name="Group 2270">
          <path id="Path_1933" data-name="Path 1933" d="M73.016,927.573l11.145,6.435L97.7,923.424l-11.145-6.435Z" fill="#8a6f2c"/>
        </g>
      </g>
    </g>
    <g id="Group_2299" data-name="Group 2299">
      <g id="Group_2273" data-name="Group 2273">
        <path id="Path_1934" data-name="Path 1934" d="M173.913,765.4,185.818,777.3l-12.65.743-11.905-11.905Z" fill="#523b21"/>
      </g>
      <g id="Group_2274" data-name="Group 2274">
        <path id="Path_1935" data-name="Path 1935" d="M174.655,752.747l11.905,11.905-.743,12.65L173.911,765.4Z" fill="#8a6f2c"/>
      </g>
      <g id="Group_2277" data-name="Group 2277">
        <g id="Group_2275" data-name="Group 2275">
          <path id="Path_1936" data-name="Path 1936" d="M189.076,783.674l9.1,9.1-15.82,6.718-9.1-9.1Z" fill="#523b21"/>
        </g>
        <g id="Group_2276" data-name="Group 2276">
          <path id="Path_1937" data-name="Path 1937" d="M195.793,767.853l9.1,9.1-6.718,15.82-9.1-9.1Z" fill="#8a6f2c"/>
        </g>
      </g>
      <g id="Group_2280" data-name="Group 2280">
        <g id="Group_2278" data-name="Group 2278">
          <path id="Path_1938" data-name="Path 1938" d="M201.295,802.474l6.435,11.145-17.019,2.395-6.435-11.146Z" fill="#523b21"/>
        </g>
        <g id="Group_2279" data-name="Group 2279">
          <path id="Path_1939" data-name="Path 1939" d="M211.877,788.93l6.435,11.146-10.584,13.542-6.435-11.146Z" fill="#8a6f2c"/>
        </g>
      </g>
      <g id="Group_2283" data-name="Group 2283">
        <g id="Group_2281" data-name="Group 2281">
          <path id="Path_1940" data-name="Path 1940" d="M208.231,823.8l3.331,12.431L194.5,834.135,191.172,821.7Z" fill="#523b21"/>
        </g>
        <g id="Group_2282" data-name="Group 2282">
          <path id="Path_1941" data-name="Path 1941" d="M221.959,813.453l3.331,12.431-13.728,10.341-3.331-12.431Z" fill="#8a6f2c"/>
        </g>
      </g>
      <g id="Group_2286" data-name="Group 2286">
        <g id="Group_2284" data-name="Group 2284">
          <path id="Path_1942" data-name="Path 1942" d="M209.413,846.187v12.87l-15.937-6.436v-12.87Z" fill="#523b21"/>
        </g>
        <g id="Group_2285" data-name="Group 2285">
          <path id="Path_1943" data-name="Path 1943" d="M225.35,839.749v12.87l-15.937,6.436v-12.87Z" fill="#8a6f2c"/>
        </g>
      </g>
      <g id="Group_2289" data-name="Group 2289">
        <g id="Group_2287" data-name="Group 2287">
          <path id="Path_1944" data-name="Path 1944" d="M204.76,868.12l-3.331,12.431L187.7,870.211l3.331-12.431Z" fill="#523b21"/>
        </g>
        <g id="Group_2288" data-name="Group 2288">
          <path id="Path_1945" data-name="Path 1945" d="M221.819,866.027l-3.331,12.431-17.059,2.092,3.331-12.431Z" fill="#8a6f2c"/>
        </g>
      </g>
      <g id="Group_2292" data-name="Group 2292">
        <g id="Group_2290" data-name="Group 2290">
          <path id="Path_1946" data-name="Path 1946" d="M194.588,888.1l-6.435,11.146-10.584-13.542L184,874.561Z" fill="#523b21"/>
        </g>
        <g id="Group_2291" data-name="Group 2291">
          <path id="Path_1947" data-name="Path 1947" d="M211.608,890.5l-6.435,11.146-17.019-2.395,6.435-11.146Z" fill="#8a6f2c"/>
        </g>
      </g>
      <g id="Group_2295" data-name="Group 2295">
        <g id="Group_2293" data-name="Group 2293">
          <path id="Path_1948" data-name="Path 1948" d="M179.59,904.771l-9.1,9.1-6.718-15.82,9.1-9.1Z" fill="#523b21"/>
        </g>
        <g id="Group_2294" data-name="Group 2294">
          <path id="Path_1949" data-name="Path 1949" d="M195.411,911.488l-9.1,9.1-15.82-6.718,9.1-9.1Z" fill="#8a6f2c"/>
        </g>
      </g>
      <g id="Group_2298" data-name="Group 2298">
        <g id="Group_2296" data-name="Group 2296">
          <path id="Path_1950" data-name="Path 1950" d="M160.79,916.99l-11.145,6.435-2.395-17.019,11.145-6.435Z" fill="#523b21"/>
        </g>
        <g id="Group_2297" data-name="Group 2297">
          <path id="Path_1951" data-name="Path 1951" d="M174.334,927.573l-11.145,6.435-13.542-10.584,11.145-6.435Z" fill="#8a6f2c"/>
        </g>
      </g>
    </g>
    <g id="Group_2300" data-name="Group 2300">
      <rect id="Rectangle_1260" data-name="Rectangle 1260" width="32.246" height="6.435" transform="matrix(0.707, -0.707, 0.707, 0.707, 109.89, 936.281)" fill="#8a6f2c"/>
    </g>
    <g id="Group_2301" data-name="Group 2301">
      <rect id="Rectangle_1261" data-name="Rectangle 1261" width="6.435" height="32.246" transform="translate(109.889 918.029) rotate(-45)" fill="#523b21"/>
    </g>
  </g>
</svg>
