<svg id="Component_99_1" data-name="Component 99 – 1" xmlns="http://www.w3.org/2000/svg" width="39.606" height="30.961" viewBox="0 0 39.606 30.961">
  <path id="Path_49" data-name="Path 49" d="M2855.756,2208h-8.846a1.8,1.8,0,0,0-1.963,1.887v4.149c0,1.093.7,1.624,1.963,1.624h8.846a2.161,2.161,0,0,0,2.291-1.987v-3.687A2.162,2.162,0,0,0,2855.756,2208Zm-6.834,6.036a2.075,2.075,0,0,1,0-4.149,2.075,2.075,0,0,1,0,4.149Z" transform="translate(-2818.44 -2192.857)" fill="#0b3b45"/>
  <path id="Path_50" data-name="Path 50" d="M2700.287,2107.675a1.894,1.894,0,0,0-1.973-1.805h-33.343a1.893,1.893,0,0,0-1.971,1.805v27.292a1.864,1.864,0,0,0,1.864,1.864h33.56a1.865,1.865,0,0,0,1.864-1.864V2129.9c-.068.006-.135.011-.2.011h-9.02a2.786,2.786,0,0,1-2.785-2.786v-4.5a2.786,2.786,0,0,1,2.785-2.787h9.02c.069,0,.136.006.2.012v-5.927h-29.921v-1.991h7.446l16.54-3.547a1.689,1.689,0,0,1,2.047,1.228l.618,2.319h3.27Z" transform="translate(-2663 -2105.87)" fill="#0b3b45"/>
</svg>
