<svg id="Group_1085" data-name="Group 1085" xmlns="http://www.w3.org/2000/svg" width="32.88" height="32.88" viewBox="0 0 32.88 32.88">
  <path id="Path_150" data-name="Path 150" d="M16.44,0A16.44,16.44,0,1,1,0,16.44,16.44,16.44,0,0,1,16.44,0Z" transform="translate(0 0)" fill="#00797e"/>
  <g id="Group_1214" data-name="Group 1214">
    <path id="Path_146" data-name="Path 146" d="M510.866,582.507l-.491,3.49a6.363,6.363,0,0,0-5.649,3.757l-3.436-.852a9.835,9.835,0,0,1,9.217-6.4C510.627,582.5,510.746,582.5,510.866,582.507Z" transform="translate(-494.466 -576.4)" fill="#fff"/>
    <path id="Path_147" data-name="Path 147" d="M720.453,590.523l-3.225,3.5A8.58,8.58,0,0,0,715.08,593l.665-4.729A13.287,13.287,0,0,1,720.453,590.523Z" transform="translate(-697.043 -583.013)" fill="#fff"/>
    <path id="Path_148" data-name="Path 148" d="M778.019,653.79a9.794,9.794,0,0,1-2.578,6.636l-2.291-2.595a6.363,6.363,0,0,0,.087-7.921l2.371-2.57A9.792,9.792,0,0,1,778.019,653.79Z" transform="translate(-751.652 -637.593)" fill="#fff"/>
    <path id="Path_149" data-name="Path 149" d="M505.022,753.425A9.836,9.836,0,0,1,489.6,744l3.421.848c-.018.193-.027.389-.027.587a6.365,6.365,0,0,0,9.737,5.4Z" transform="translate(-483.219 -729.002)" fill="#fff"/>
  </g>
</svg>
