<svg xmlns="http://www.w3.org/2000/svg" width="26.237" height="18.823" viewBox="0 0 26.237 18.823">
  <path id="Path_210" data-name="Path 210" d="M100.372,388.6l-.013-.038-.017-.049c-.006-.016-.012-.032-.019-.048l-.019-.048-.02-.046-.021-.048-.021-.045-.023-.047-.023-.043c-.009-.016-.016-.031-.025-.046l-.024-.043-.026-.044-.026-.042-.029-.043-.028-.04c-.009-.014-.019-.028-.029-.042s-.019-.026-.029-.038l-.031-.041c-.01-.013-.02-.025-.03-.037l-.033-.04-.031-.036-.034-.038-.033-.033-.037-.038c-.011-.011-.022-.022-.034-.033s-.024-.024-.038-.036l-.035-.031-.039-.034-.036-.03-.04-.033-.038-.028-.041-.032-.038-.027-.043-.029-.039-.025-.043-.028-.041-.025-.045-.026-.042-.022-.046-.024-.042-.02-.047-.023-.044-.02-.047-.02-.046-.018L98.84,387l-.047-.016-.047-.017-.048-.015-.047-.015-.05-.013-.048-.012-.05-.011-.048-.011-.054-.01-.047-.008-.056-.008-.045-.006-.06-.007-.042,0-.068,0-.035,0-.1,0h-21.1l-.1,0-.036,0-.068,0-.041,0-.061.007-.045.006-.056.008-.046.008-.054.01-.048.011-.051.011-.048.012-.049.013-.048.015-.048.015-.047.017-.047.016-.047.019-.046.018-.047.02-.044.02-.047.022-.042.021-.046.024-.042.022-.044.026-.041.025-.043.028-.04.025-.042.029-.038.027-.042.031-.038.029-.04.033-.036.03-.039.034-.035.031-.038.036-.033.032-.036.038-.033.034-.034.038-.032.036-.033.04-.03.036-.032.042-.029.038-.029.042-.028.039-.028.043-.027.042-.026.044-.025.043-.024.046-.023.043-.023.047-.022.045-.02.048c-.007.015-.014.03-.02.046s-.012.033-.019.048l-.019.048-.017.049-.013.038a2.356,2.356,0,0,0-.138.811V403.1a2.57,2.57,0,0,0,2.47,2.565h.045l.051,0H97.958a2.542,2.542,0,0,0,2.435-1.778.83.83,0,0,0,.029-.124,2.546,2.546,0,0,0,.087-.665V389.41a2.336,2.336,0,0,0-.138-.811Zm-24.054.137.033-.025.025-.016.033-.021.026-.015.035-.018.028-.013.037-.016.028-.01.039-.013.029-.007.041-.01.028-.006.047-.007.024,0a.71.71,0,0,1,.071,0h21.1a.715.715,0,0,1,.072,0l.023,0,.047.007.027.006.042.01.029.007.038.013.029.01.037.016.027.013.035.018.026.015.034.021.025.016.033.025.017.013L88,399.237a.856.856,0,0,1-1.209,0L76.3,388.749l.017-.013Zm-.333,2.117,5.408,5.408-5.408,5.407Zm21.959,13.1H76.854a.851.851,0,0,1-.54-.2l6.288-6.288,2.976,2.976a2.567,2.567,0,0,0,3.628,0l2.99-2.99,6.3,6.3a.854.854,0,0,1-.549.2Zm.856-2.314-5.394-5.394,5.394-5.394Zm0,0" transform="translate(-74.273 -386.843)" fill="#727272"/>
</svg>
