<svg xmlns="http://www.w3.org/2000/svg" width="29.97" height="16.621" viewBox="0 0 29.97 16.621">
  <g id="Group_93" data-name="Group 93" transform="translate(29.97 16.621) rotate(180)">
    <g id="Group_92" data-name="Group 92" transform="translate(0 0)">
      <path id="Path_54" data-name="Path 54" d="M29.831,7.91l-.348-.44a22.349,22.349,0,0,0-4-3.729A17.849,17.849,0,0,0,14.985,0a17.85,17.85,0,0,0-10.5,3.74,22.361,22.361,0,0,0-4,3.729L.139,7.91a.646.646,0,0,0,0,.8l.348.441a22.374,22.374,0,0,0,4,3.729,17.849,17.849,0,0,0,10.5,3.74,17.848,17.848,0,0,0,10.5-3.74,22.332,22.332,0,0,0,4-3.729l.349-.441A.646.646,0,0,0,29.831,7.91ZM14.985,14.7a6.389,6.389,0,1,1,6.389-6.389A6.389,6.389,0,0,1,14.985,14.7Z" fill="#fff"/>
      <path id="Path_55" data-name="Path 55" d="M4.372,0A4.372,4.372,0,1,0,8.743,4.372,4.372,4.372,0,0,0,4.372,0Zm3,4.047a3.344,3.344,0,0,1-3.34,3.34.672.672,0,1,1,0-1.345A2,2,0,0,0,6.023,4.047a.672.672,0,1,1,1.345,0Z" transform="translate(10.613 3.939)" fill="#fff"/>
    </g>
  </g>
</svg>
