<svg xmlns="http://www.w3.org/2000/svg" xmlns:xlink="http://www.w3.org/1999/xlink" width="70.156" height="71.648" viewBox="0 0 70.156 71.648">
  <defs>
    <filter id="Path_2091" x="0" y="34.116" width="70.156" height="37.533" filterUnits="userSpaceOnUse">
      <feOffset dy="3" input="SourceAlpha"/>
      <feGaussianBlur stdDeviation="3" result="blur"/>
      <feFlood flood-color="#6defd6" flood-opacity="0.835"/>
      <feComposite operator="in" in2="blur"/>
      <feComposite in="SourceGraphic"/>
    </filter>
    <linearGradient id="linear-gradient" y1="0.5" x2="1" y2="0.5" gradientUnits="objectBoundingBox">
      <stop offset="0" stop-color="#00b5c3"/>
      <stop offset="0.489" stop-color="#aadad8"/>
      <stop offset="1" stop-color="#006082"/>
    </linearGradient>
  </defs>
  <g id="Group_2883" data-name="Group 2883" transform="translate(-153.304 -299.579)">
    <g id="Group_2692" data-name="Group 2692" transform="translate(158.58 339.227)">
      <g transform="matrix(1, 0, 0, 1, -5.28, -39.65)" filter="url(#Path_2091)">
        <path id="Path_2091-2" data-name="Path 2091" d="M0,8.738,25.693,0,51.838,9.193,25.693,18.631Z" transform="matrix(1, -0.02, 0.02, 1, 9, 41.02)" fill="#cd19d5" opacity="0.556"/>
      </g>
      <g id="Group_2460" data-name="Group 2460" transform="translate(4.938 0.306)">
        <path id="Path_2078" data-name="Path 2078" d="M590.169,1328.13l-24.614-9.034-24.614,9.034-1.1-3.008,25.719-9.441,25.719,9.441Z" transform="translate(-539.837 -1315.681)" fill="url(#linear-gradient)"/>
      </g>
      <g id="Group_2457" data-name="Group 2457" transform="translate(0 0)" style="mix-blend-mode: color-dodge;isolation: isolate">
        <path id="Path_2080" data-name="Path 2080" d="M567.413,1337.993l-30.657-11.251,30.657-11.253,30.657,11.253Zm-21.353-11.251,21.353,7.836,21.353-7.836-21.353-7.837Z" transform="translate(-536.756 -1315.489)" fill="url(#linear-gradient)"/>
      </g>
      <g id="Group_2458" data-name="Group 2458" transform="translate(3.887 9.65)" opacity="0.46" style="mix-blend-mode: color-dodge;isolation: isolate">
        <path id="Path_2082" data-name="Path 2082" d="M565.951,1333.951a1.6,1.6,0,0,1-.553-.1l-25.166-9.237a1.6,1.6,0,0,1,1.1-3.008l24.615,9.033,24.613-9.033a1.6,1.6,0,0,1,1.106,3.008l-25.166,9.237A1.61,1.61,0,0,1,565.951,1333.951Z" transform="translate(-539.181 -1321.51)" fill="url(#linear-gradient)"/>
      </g>
    </g>
    <g id="Group_2701" data-name="Group 2701" transform="translate(145.122 258.123)">
      <g id="Group_2662" data-name="Group 2662" transform="translate(18.143 41.471)">
        <rect id="Rectangle_1113" data-name="Rectangle 1113" width="36.687" height="36.687" transform="translate(25.942) rotate(45)" fill="#0027aa"/>
        <path id="Path_731" data-name="Path 731" d="M-3568.47-14424.818h25.522l-25.522,26Z" transform="translate(3594.412 14450.761)" fill="#610069"/>
        <path id="Path_732" data-name="Path 732" d="M0,0H25.841L0,25.762Z" transform="translate(25.942 25.942) rotate(-90)" fill="#edeeff" opacity="0.738"/>
      </g>
      <path id="Path_2340" data-name="Path 2340" d="M-2654.557-16340.4l-25.964-.018,25.93,25.994Z" transform="translate(2698.699 16407.85)" fill="#1de380" opacity="0.789" style="mix-blend-mode: lighten;isolation: isolate"/>
      <path id="Path_2341" data-name="Path 2341" d="M-2662.589-16330.849h-1.541l-.015-25.973Z" transform="translate(2708.256 16398.277)" fill="#fff"/>
      <path id="Path_2342" data-name="Path 2342" d="M-2638.309-16339.44h-25.851v-2.633Z" transform="translate(2708.248 16406.887)" fill="#fff"/>
    </g>
  </g>
</svg>
