<svg xmlns="http://www.w3.org/2000/svg" width="11.335" height="17.468" viewBox="0 0 11.335 17.468">
  <g id="_" data-name=" " style="isolation: isolate">
    <g id="Group_1078" data-name="Group 1078" style="isolation: isolate">
      <path id="Path_545" data-name="Path 545" d="M289.576,1283.841a3.429,3.429,0,0,1,.191-1.217,2.522,2.522,0,0,1,.644-.929c.445-.431.854-.8,1.228-1.123s.7-.615.967-.894a4.644,4.644,0,0,0,.632-.787,1.465,1.465,0,0,0,.228-.775,1.577,1.577,0,0,0-.49-1.232,1.771,1.771,0,0,0-1.228-.441,2.234,2.234,0,0,0-1.705.62,2.407,2.407,0,0,0-.657,1.5l-3.675-.239a5.5,5.5,0,0,1,1.861-3.855,6.227,6.227,0,0,1,4.1-1.324,6.95,6.95,0,0,1,2.063.3,5.055,5.055,0,0,1,1.707.894,4.276,4.276,0,0,1,1.169,1.479,4.581,4.581,0,0,1,.43,2.028,5.075,5.075,0,0,1-.143,1.254,3.877,3.877,0,0,1-.49,1.109,6.415,6.415,0,0,1-.907,1.109,15.349,15.349,0,0,1-1.419,1.23,2.468,2.468,0,0,0-.74.835,1.891,1.891,0,0,0-.191.811v.692h-3.579Zm-.406,4.582a2.242,2.242,0,0,1,.167-.859,2.111,2.111,0,0,1,1.169-1.169,2.292,2.292,0,0,1,1.718,0,2.151,2.151,0,0,1,.7.466,2.128,2.128,0,0,1,.465.7,2.294,2.294,0,0,1,0,1.718,2.128,2.128,0,0,1-.465.7,2.159,2.159,0,0,1-.7.466,2.3,2.3,0,0,1-1.718,0,2.111,2.111,0,0,1-1.169-1.169A2.236,2.236,0,0,1,289.17,1288.422Z" transform="translate(-285.71 -1273.15)" fill="#fff"/>
    </g>
  </g>
</svg>
