<svg id="Component_98_1" data-name="Component 98 – 1" xmlns="http://www.w3.org/2000/svg" width="39.416" height="37.701" viewBox="0 0 39.416 37.701">
  <path id="Path_37" data-name="Path 37" d="M3043.013-400.326c0-.883-.288-1.163-1.109-1.13-1.3.052-2.608.071-3.911,0-.938-.049-1.223.194-1.224,1.165,0,1.575,0,3.151,0,4.727,0,.122-.015.244-.026.417l6.2,5.939s.071-.036.072-.332Q3043.021-394.932,3043.013-400.326Z" transform="translate(-3009.229 401.459)" fill="#073b46"/>
  <line id="Line_89" data-name="Line 89" x2="6.949" y2="6.686" transform="translate(27.544 8.189)" fill="none"/>
  <path id="Path_45" data-name="Path 45" d="M2866.32-370.174a5.157,5.157,0,0,0-.519-.693q-2.41-2.313-4.839-4.6l-6.542-6.281c-.094-.073-.138-.1-.177-.137-1.906-1.825-3.8-3.659-5.719-5.472a2.682,2.682,0,0,0-3.8-.016c-1.266,1.186-2.511,2.4-3.768,3.6q-2.84,2.705-5.684,5.406-3.708,3.537-7.406,7.088c-.339.326-.627.722-.937,1.088-.008.186-.015.346-.022.532.557.776,1.1,1.565,1.676,2.325a.691.691,0,0,0,1.119.129,5.9,5.9,0,0,1,1.175-.963,2.228,2.228,0,0,0,1.266-1.306.2.2,0,0,1,.391.021c.006,4.458,0,11.322.005,15.254,0,1.3.623,2,1.757,2h9.185v-.51c0-3.284,0-6.569-.006-9.853l0-.268a3.114,3.114,0,0,1,3.13-3.1,3.1,3.1,0,0,1,3.127,2.988c.048,2.637.015,10.549.015,10.549a.188.188,0,0,0,.182.191h0c3.063,0,6.128.009,9.192-.005a1.634,1.634,0,0,0,1.566-1.813c.01-4.133.007-11.352,0-15.895q1.345,1.291,2.7,2.575c.551.522.952.467,1.4-.153.519-.72,1.03-1.447,1.544-2.171C2866.324-369.836,2866.322-370,2866.32-370.174Z" transform="translate(-2826.911 389.896)" fill="#073b46"/>
</svg>
