<svg id="Component_100_1" data-name="Component 100 – 1" xmlns="http://www.w3.org/2000/svg" width="38.265" height="38.265" viewBox="0 0 38.265 38.265">
  <path id="Path_46" data-name="Path 46" d="M5083.125,4016.332a19.133,19.133,0,1,0,19.133,19.133A19.132,19.132,0,0,0,5083.125,4016.332Zm0,34.339a15.207,15.207,0,1,1,15.207-15.207A15.206,15.206,0,0,1,5083.125,4050.671Z" transform="translate(-5063.993 -4016.332)" fill="#0b3b45"/>
  <path id="Path_47" data-name="Path 47" d="M5140.04,4080.323a12.056,12.056,0,1,0,12.056,12.056A12.056,12.056,0,0,0,5140.04,4080.323Zm0,21.638a9.582,9.582,0,1,1,9.582-9.582A9.582,9.582,0,0,1,5140.04,4101.96Z" transform="translate(-5120.907 -4073.246)" fill="#0b3b45"/>
  <rect id="Rectangle_246" data-name="Rectangle 246" width="3.539" height="8.516" rx="1.769" transform="translate(17.364 17.326)" fill="#0b3b45"/>
  <circle id="Ellipse_119" data-name="Ellipse 119" cx="1.604" cy="1.604" r="1.604" transform="translate(17.475 12.239)" fill="#0b3b45"/>
</svg>
