<svg xmlns="http://www.w3.org/2000/svg" xmlns:xlink="http://www.w3.org/1999/xlink" width="324.561" height="486.808" viewBox="0 0 324.561 486.808">
  <defs>
    <linearGradient id="linear-gradient" x1="-138.367" y1="-174.021" x2="-137.66" y2="-174.728" gradientUnits="objectBoundingBox">
      <stop offset="0.004" stop-color="#04628d"/>
      <stop offset="1" stop-color="#6ee6ff"/>
    </linearGradient>
    <linearGradient id="linear-gradient-2" x1="-107.19" y1="-150.493" x2="-106.483" y2="-151.2" xlink:href="#linear-gradient"/>
    <linearGradient id="linear-gradient-3" x1="-109.544" y1="-174.711" x2="-108.837" y2="-175.418" xlink:href="#linear-gradient"/>
    <linearGradient id="linear-gradient-4" x1="-109.731" y1="-119.851" x2="-109.024" y2="-120.558" xlink:href="#linear-gradient"/>
    <linearGradient id="linear-gradient-5" x1="-121.704" y1="-182.779" x2="-120.997" y2="-183.486" xlink:href="#linear-gradient"/>
    <linearGradient id="linear-gradient-6" x1="-100.296" y1="29.91" x2="-99.589" y2="29.203" xlink:href="#linear-gradient"/>
    <linearGradient id="linear-gradient-7" x1="-123.837" y1="53.438" x2="-123.13" y2="52.73" xlink:href="#linear-gradient"/>
    <linearGradient id="linear-gradient-8" x1="-99.62" y1="29.22" x2="-98.913" y2="28.513" xlink:href="#linear-gradient"/>
    <linearGradient id="linear-gradient-9" x1="-154.48" y1="84.081" x2="-153.773" y2="83.374" xlink:href="#linear-gradient"/>
    <linearGradient id="linear-gradient-10" x1="-91.551" y1="21.152" x2="-90.844" y2="20.444" xlink:href="#linear-gradient"/>
  </defs>
  <g id="Group_2910" data-name="Group 2910" transform="translate(-23.763 -557.227)">
    <g id="Group_1829" data-name="Group 1829" transform="translate(22.763 567.227)">
      <line id="Line_288" data-name="Line 288" y2="221.955" transform="translate(135.015 239.354)" fill="none" stroke="#707070" stroke-miterlimit="10" stroke-width="1"/>
      <path id="Path_632" data-name="Path 632" d="M1336.484,920.106V786.552L1230.252,686.03V567.865" transform="translate(-1161.5 -499.824)" fill="none" stroke="#707070" stroke-miterlimit="10" stroke-width="1"/>
      <g id="Group_1824" data-name="Group 1824" transform="translate(233.308 85.516)">
        <path id="Path_633" data-name="Path 633" d="M1384.07,879.7V674.454l76.688-76.688" transform="translate(-1384.07 -592.768)" fill="none" stroke="#707070" stroke-miterlimit="10" stroke-width="1"/>
        <path id="Path_634" data-name="Path 634" d="M1457.8,600.538a3.722,3.722,0,1,1,3.722-3.722A3.721,3.721,0,0,1,1457.8,600.538Z" transform="translate(-1379.182 -593.094)" fill="url(#linear-gradient)"/>
      </g>
      <g id="Group_1825" data-name="Group 1825" transform="translate(104.598 166.641)">
        <line id="Line_289" data-name="Line 289" y1="273.016" transform="translate(3.722 5.401)" fill="none" stroke="#707070" stroke-miterlimit="10" stroke-width="1"/>
        <path id="Path_635" data-name="Path 635" d="M1267.481,627.15a3.722,3.722,0,1,1,3.722-3.722A3.722,3.722,0,0,1,1267.481,627.15Z" transform="translate(-1263.759 -619.706)" fill="url(#linear-gradient-2)"/>
      </g>
      <g id="Group_1826" data-name="Group 1826" transform="translate(203.494 190.725)">
        <line id="Line_290" data-name="Line 290" y1="193.324" transform="translate(3.722 3.722)" fill="none" stroke="#707070" stroke-miterlimit="10" stroke-width="1"/>
        <path id="Path_636" data-name="Path 636" d="M1359.923,703.212a3.722,3.722,0,1,1,3.722-3.722A3.722,3.722,0,0,1,1359.923,703.212Z" transform="translate(-1356.201 -695.768)" fill="url(#linear-gradient-3)"/>
      </g>
      <g id="Group_1827" data-name="Group 1827" transform="translate(1 -10)">
        <path id="Path_637" data-name="Path 637" d="M1246.747,885.97v-301.3l-76.688-76.688" transform="translate(-1165.703 -504.004)" fill="none" stroke="#707070" stroke-miterlimit="10" stroke-width="1"/>
        <path id="Path_638" data-name="Path 638" d="M1169.709,511.708a3.722,3.722,0,1,1,3.722-3.722A3.721,3.721,0,0,1,1169.709,511.708Z" transform="translate(-1165.987 -504.264)" fill="url(#linear-gradient-4)"/>
      </g>
      <g id="Group_1828" data-name="Group 1828" transform="translate(278.782 169.641)">
        <line id="Line_291" data-name="Line 291" y2="290.719" transform="translate(3.722 6.374)" fill="none" stroke="#707070" stroke-miterlimit="10" stroke-width="1"/>
        <path id="Path_639" data-name="Path 639" d="M1430.3,688.98a3.722,3.722,0,1,1,3.722-3.722A3.722,3.722,0,0,1,1430.3,688.98Z" transform="translate(-1426.576 -681.536)" fill="url(#linear-gradient-5)"/>
      </g>
    </g>
    <g id="Group_1835" data-name="Group 1835" transform="translate(32.678 557.293)" opacity="0.5">
      <line id="Line_292" data-name="Line 292" y2="221.955" transform="translate(180.632 259.361)" fill="none" stroke="#707070" stroke-miterlimit="10" stroke-width="1"/>
      <path id="Path_640" data-name="Path 640" d="M1320.758,940.114V798.974L1426.99,692.742V567.865" transform="translate(-1180.096 -499.824)" fill="none" stroke="#707070" stroke-miterlimit="10" stroke-width="1"/>
      <g id="Group_1830" data-name="Group 1830" transform="translate(0 95.032)">
        <path id="Path_641" data-name="Path 641" d="M1271.245,879.7V674.454l-76.688-76.688" transform="translate(-1188.907 -592.768)" fill="none" stroke="#707070" stroke-miterlimit="10" stroke-width="1"/>
        <path id="Path_642" data-name="Path 642" d="M1193,600.538a3.722,3.722,0,1,0-3.723-3.722A3.722,3.722,0,0,0,1193,600.538Z" transform="translate(-1189.275 -593.094)" fill="url(#linear-gradient-6)"/>
      </g>
      <g id="Group_1831" data-name="Group 1831" transform="translate(203.605 178.502)">
        <line id="Line_293" data-name="Line 293" y1="273.016" transform="translate(3.722 5.401)" fill="none" stroke="#707070" stroke-miterlimit="10" stroke-width="1"/>
        <path id="Path_643" data-name="Path 643" d="M1383.315,627.15a3.722,3.722,0,1,0-3.721-3.722A3.722,3.722,0,0,0,1383.315,627.15Z" transform="translate(-1379.593 -619.706)" fill="url(#linear-gradient-7)"/>
      </g>
      <g id="Group_1832" data-name="Group 1832" transform="translate(104.709 204.874)">
        <line id="Line_294" data-name="Line 294" y1="193.324" transform="translate(3.722 3.722)" fill="none" stroke="#707070" stroke-miterlimit="10" stroke-width="1"/>
        <path id="Path_644" data-name="Path 644" d="M1290.873,703.212a3.722,3.722,0,1,0-3.722-3.722A3.722,3.722,0,0,0,1290.873,703.212Z" transform="translate(-1287.151 -695.768)" fill="url(#linear-gradient-8)"/>
      </g>
      <g id="Group_1833" data-name="Group 1833" transform="translate(234.603 0)">
        <path id="Path_645" data-name="Path 645" d="M1408.568,885.97v-301.3l76.688-76.688" transform="translate(-1408.568 -504.004)" fill="none" stroke="#707070" stroke-miterlimit="10" stroke-width="1"/>
        <path id="Path_646" data-name="Path 646" d="M1481.087,511.708a3.722,3.722,0,1,0-3.722-3.722A3.722,3.722,0,0,0,1481.087,511.708Z" transform="translate(-1403.765 -504.264)" fill="url(#linear-gradient-9)"/>
      </g>
      <g id="Group_1834" data-name="Group 1834" transform="translate(29.421 189.648)">
        <line id="Line_295" data-name="Line 295" y2="290.719" transform="translate(3.722 6.374)" fill="none" stroke="#707070" stroke-miterlimit="10" stroke-width="1"/>
        <path id="Path_647" data-name="Path 647" d="M1220.5,688.98a3.722,3.722,0,1,0-3.722-3.722A3.722,3.722,0,0,0,1220.5,688.98Z" transform="translate(-1216.776 -681.536)" fill="url(#linear-gradient-10)"/>
      </g>
    </g>
  </g>
</svg>
