<svg id="Group_357" data-name="Group 357" xmlns="http://www.w3.org/2000/svg" width="20.197" height="19.291" viewBox="0 0 20.197 19.291">
  <g id="Group_355" data-name="Group 355" transform="translate(0.283 5.979)">
    <g id="Group_354" data-name="Group 354">
      <g id="Group_353" data-name="Group 353">
        <path id="Path_208" data-name="Path 208" d="M518.382,689.388v7.14a.319.319,0,0,1-.319.32h-3.685a.32.32,0,0,1-.32-.32v-6.64c0-1.747-.624-2.941-2.19-2.941a2.366,2.366,0,0,0-2.219,1.582,2.965,2.965,0,0,0-.143,1.053v6.945a.319.319,0,0,1-.32.319H505.5a.318.318,0,0,1-.32-.319c.008-1.768.045-10.347.007-12.363a.318.318,0,0,1,.32-.323h3.677a.319.319,0,0,1,.32.319v1.524c-.009.014-.021.029-.029.042h.029v-.042a4.293,4.293,0,0,1,3.9-2.148c2.845,0,4.978,1.859,4.978,5.852Zm-19.6,7.46h3.685a.32.32,0,0,0,.32-.32V684.16a.319.319,0,0,0-.32-.319h-3.685a.319.319,0,0,0-.319.319v12.368A.319.319,0,0,0,498.787,696.848Z" transform="translate(-498.468 -683.536)" fill="#727272"/>
      </g>
    </g>
  </g>
  <g id="Group_356" data-name="Group 356" transform="translate(0 0)">
    <path id="Path_209" data-name="Path 209" d="M502.674,676.907a2.315,2.315,0,1,1-2.314-2.315A2.315,2.315,0,0,1,502.674,676.907Z" transform="translate(-498.045 -674.592)" fill="#727272"/>
  </g>
</svg>
