<svg xmlns="http://www.w3.org/2000/svg" width="21.932" height="23.483" viewBox="0 0 21.932 23.483">
  <path id="Path_1268" data-name="Path 1268" d="M-140.884,250.389a7.026,7.026,0,0,0-5.421,2.555,7,7,0,0,0-1.615,4.478v3.656h-3.931v12.794h21.932V261.078h-3.931v-3.656A7.042,7.042,0,0,0-140.884,250.389Zm1.509,20.125h-3.019l.8-3.14a1.684,1.684,0,0,1-.977-1.527,1.682,1.682,0,0,1,1.684-1.684,1.685,1.685,0,0,1,1.688,1.684,1.69,1.69,0,0,1-.979,1.527Zm3.334-9.436h-9.689v-3.656a4.808,4.808,0,0,1,.987-2.917,4.837,4.837,0,0,1,3.859-1.926,4.85,4.85,0,0,1,4.843,4.843Z" transform="translate(151.851 -250.389)" fill="#fff" opacity="0.725" style="mix-blend-mode: screen;isolation: isolate"/>
</svg>
