<svg xmlns="http://www.w3.org/2000/svg" xmlns:xlink="http://www.w3.org/1999/xlink" width="107.407" height="112.881" viewBox="0 0 107.407 112.881">
  <defs>
    <filter id="Path_1179" x="0" y="0" width="107.407" height="112.881" filterUnits="userSpaceOnUse">
      <feOffset dy="3" input="SourceAlpha"/>
      <feGaussianBlur stdDeviation="5" result="blur"/>
      <feFlood flood-color="#bef5ff" flood-opacity="0.835"/>
      <feComposite operator="in" in2="blur"/>
      <feComposite in="SourceGraphic"/>
    </filter>
  </defs>
  <g transform="matrix(1, 0, 0, 1, 0, 0)" filter="url(#Path_1179)">
    <path id="Path_1179-2" data-name="Path 1179" d="M-239.081,905.633h-47V892.726a16.972,16.972,0,0,1,3.485-10.3,17.072,17.072,0,0,1,13.619-6.8,17.117,17.117,0,0,1,17.092,17.1v.663h7.734v-.663a24.854,24.854,0,0,0-24.827-24.82,24.8,24.8,0,0,0-19.133,9.017,24.7,24.7,0,0,0-5.7,15.8v12.905h-13.873v45.154h77.407V905.633Zm-24.576,33.3h-10.655l2.83-11.081a5.945,5.945,0,0,1-3.449-5.39A5.938,5.938,0,0,1-269,916.518h.009a5.947,5.947,0,0,1,5.958,5.936v.007a5.966,5.966,0,0,1-3.456,5.39Z" transform="translate(322.69 -855.91)" fill="#10ffed"/>
  </g>
</svg>
