<svg xmlns="http://www.w3.org/2000/svg" xmlns:xlink="http://www.w3.org/1999/xlink" width="108.434" height="246.101" viewBox="0 0 108.434 246.101">
  <defs>
    <linearGradient id="linear-gradient" x1="-138.367" y1="-174.021" x2="-137.66" y2="-174.728" gradientUnits="objectBoundingBox">
      <stop offset="0.004" stop-color="#04628d"/>
      <stop offset="1" stop-color="#6ee6ff"/>
    </linearGradient>
    <linearGradient id="linear-gradient-2" x1="0.5" x2="0.5" y2="33.673" gradientUnits="objectBoundingBox">
      <stop offset="0" stop-color="#04628d"/>
      <stop offset="1" stop-color="#023147" stop-opacity="0.122"/>
    </linearGradient>
    <linearGradient id="linear-gradient-5" x1="110.731" y1="-119.851" x2="110.024" y2="-120.558" xlink:href="#linear-gradient"/>
    <linearGradient id="linear-gradient-6" x1="-121.704" y1="-182.779" x2="-120.997" y2="-183.486" xlink:href="#linear-gradient"/>
  </defs>
  <g id="Group_1991" data-name="Group 1991" transform="translate(-90.438 -3)" style="mix-blend-mode: color-dodge;isolation: isolate">
    <g id="Group_1824" data-name="Group 1824" transform="translate(135.167 47.251)">
      <path id="Path_633" data-name="Path 633" d="M1384.069,795.42V640.139l42.373-42.373" transform="translate(-1384.069 -595.004)" fill="none" stroke="#707070" stroke-miterlimit="10" stroke-width="2"/>
      <path id="Path_634" data-name="Path 634" d="M1456.133,597.207a2.056,2.056,0,1,1,2.056-2.056A2.056,2.056,0,0,1,1456.133,597.207Z" transform="translate(-1412.694 -593.094)" stroke="#707070" stroke-width="2" fill="url(#linear-gradient)"/>
    </g>
    <g id="Group_1826" data-name="Group 1826" transform="translate(114.393 105.382)">
      <line id="Line_290" data-name="Line 290" y1="140.449" transform="translate(2.056 2.056)" fill="none" stroke="#626262" stroke-miterlimit="10" stroke-width="2"/>
      <path id="Path_636" data-name="Path 636" d="M1358.257,699.881a2.057,2.057,0,1,1,2.056-2.056A2.056,2.056,0,0,1,1358.257,699.881Z" transform="translate(-1356.201 -695.768)" stroke="#707070" stroke-width="2" fill="url(#linear-gradient-2)"/>
    </g>
    <g id="Group_1994" data-name="Group 1994" transform="translate(180.393 133.028)">
      <line id="Line_290-2" data-name="Line 290" y1="112.803" transform="translate(1.577 2.056)" fill="none" stroke="#626262" stroke-miterlimit="10" stroke-width="2"/>
      <path id="Path_636-2" data-name="Path 636" d="M1357.778,699.881a2.129,2.129,0,1,1,1.577-2.056A1.865,1.865,0,0,1,1357.778,699.881Z" transform="translate(-1356.201 -695.768)" stroke="#707070" stroke-width="2" fill="url(#linear-gradient-2)"/>
    </g>
    <g id="Group_1993" data-name="Group 1993" transform="translate(91.438 181.527)">
      <line id="Line_290-3" data-name="Line 290" y1="64.304" transform="translate(2.532 2.056)" fill="none" stroke="#626262" stroke-miterlimit="10" stroke-width="2"/>
      <path id="Path_636-3" data-name="Path 636" d="M1358.733,699.881a2.1,2.1,0,1,1,2.532-2.056A2.332,2.332,0,0,1,1358.733,699.881Z" transform="translate(-1356.201 -695.768)" stroke="#707070" stroke-width="2" fill="url(#linear-gradient-2)"/>
    </g>
    <g id="Group_1827" data-name="Group 1827" transform="translate(150.497 4)">
      <path id="Path_637" data-name="Path 637" d="M1170.058,750.886V550.356l44.968-42.373" transform="translate(-1170.058 -505.785)" fill="none" stroke="#707070" stroke-miterlimit="10" stroke-width="2"/>
      <path id="Path_638" data-name="Path 638" d="M1168.043,508.377a2.056,2.056,0,1,0-2.056-2.056A2.056,2.056,0,0,0,1168.043,508.377Z" transform="translate(-1122.725 -504.264)" stroke="#707070" stroke-width="2" fill="url(#linear-gradient-5)"/>
    </g>
    <g id="Group_1828" data-name="Group 1828" transform="translate(159.867 83.733)">
      <line id="Line_291" data-name="Line 291" y2="160.633" transform="translate(2.056 3.522)" fill="none" stroke="#707070" stroke-miterlimit="10" stroke-width="2"/>
      <path id="Path_639" data-name="Path 639" d="M1428.632,685.649a2.056,2.056,0,1,1,2.057-2.056A2.056,2.056,0,0,1,1428.632,685.649Z" transform="translate(-1426.576 -681.536)" stroke="#707070" stroke-width="2" fill="url(#linear-gradient-6)"/>
    </g>
  </g>
</svg>
