<svg id="Component_101_1" data-name="Component 101 – 1" xmlns="http://www.w3.org/2000/svg" width="40.144" height="34.798" viewBox="0 0 40.144 34.798">
  <g id="Group_88" data-name="Group 88" transform="translate(0 12.749)">
    <path id="Path_51" data-name="Path 51" d="M4578.519,950.5H4541.6a1.516,1.516,0,0,0-1.553,1.888l5.625,18.6a2.312,2.312,0,0,0,2.228,1.556h24.317a2.311,2.311,0,0,0,2.228-1.556l5.625-18.6A1.516,1.516,0,0,0,4578.519,950.5Zm-27.835,16.644h0a1.528,1.528,0,0,1-1.494-1.062l-1.915-6.692a1.455,1.455,0,0,1,1.494-1.79h.552a1.518,1.518,0,0,1,1.519,1.163l1.363,6.692A1.464,1.464,0,0,1,4550.684,967.144Zm6.479,0h0a1.541,1.541,0,0,1-1.572-1.3l-.775-6.625a1.509,1.509,0,0,1,1.573-1.616h.546a1.529,1.529,0,0,1,1.581,1.413l.228,6.625A1.519,1.519,0,0,1,4557.163,967.144Zm8.949-7.906-.895,6.629a1.541,1.541,0,0,1-1.567,1.277,1.516,1.516,0,0,1-1.578-1.528l.347-6.629A1.529,1.529,0,0,1,4564,957.6h.548A1.5,1.5,0,0,1,4566.112,959.238Zm7.537.167-2.039,6.7a1.526,1.526,0,0,1-1.482,1.036,1.456,1.456,0,0,1-1.508-1.7l1.485-6.7a1.514,1.514,0,0,1,1.508-1.136h.554A1.448,1.448,0,0,1,4573.649,959.4Z" transform="translate(-4539.989 -950.5)" fill="#0b3b45"/>
  </g>
  <g id="Group_89" data-name="Group 89" transform="matrix(0.978, -0.208, 0.208, 0.978, 6.012, 8.329)">
    <path id="Path_52" data-name="Path 52" d="M4594.313,897.3a1.367,1.367,0,0,1-.928-.355,1.146,1.146,0,0,1,0-1.713l8.535-7.875a1.391,1.391,0,0,1,1.856,0,1.146,1.146,0,0,1,0,1.713l-8.534,7.874A1.368,1.368,0,0,1,4594.313,897.3Z" transform="translate(-4593 -887)" fill="#0b3b45"/>
  </g>
  <g id="Group_90" data-name="Group 90" transform="matrix(1, -0.017, 0.017, 1, 18.318, 0.243)">
    <path id="Path_53" data-name="Path 53" d="M4685.6,854.838a1.348,1.348,0,0,1-1.065-.5l-11.292-14.416a1.152,1.152,0,0,1,.3-1.691,1.385,1.385,0,0,1,1.833.272l11.292,14.416a1.152,1.152,0,0,1-.3,1.691A1.381,1.381,0,0,1,4685.6,854.838Z" transform="translate(-4673 -837.999)" fill="#0b3b45"/>
  </g>
</svg>
