<svg xmlns="http://www.w3.org/2000/svg" xmlns:xlink="http://www.w3.org/1999/xlink" width="82.324" height="78.388" viewBox="0 0 82.324 78.388">
  <defs>
    <filter id="Path_202" x="0" y="0" width="82.324" height="78.388" filterUnits="userSpaceOnUse">
      <feOffset dy="3" input="SourceAlpha"/>
      <feGaussianBlur stdDeviation="5" result="blur"/>
      <feFlood flood-color="#74fff5"/>
      <feComposite operator="in" in2="blur"/>
      <feComposite in="SourceGraphic"/>
    </filter>
  </defs>
  <g transform="matrix(1, 0, 0, 1, 0, 0)" filter="url(#Path_202)">
    <path id="Path_202-2" data-name="Path 202" d="M294.273,678.622a9.184,9.184,0,0,1-2.255.644c.364-.061.9-.719,1.113-.985a4.152,4.152,0,0,0,.751-1.368c.019-.039.034-.088,0-.118a.129.129,0,0,0-.12.01,11.531,11.531,0,0,1-2.679,1.025.177.177,0,0,1-.184-.049,2.3,2.3,0,0,0-.235-.239,4.727,4.727,0,0,0-1.3-.795,4.521,4.521,0,0,0-1.99-.321,4.759,4.759,0,0,0-1.888.533,4.872,4.872,0,0,0-1.523,1.244,4.681,4.681,0,0,0-.91,1.822A4.938,4.938,0,0,0,283,681.95c.015.108.005.122-.092.108a14.306,14.306,0,0,1-9.2-4.685c-.108-.122-.166-.122-.254.01a4.667,4.667,0,0,0,.8,5.514c.18.171.366.342.566.5a4.7,4.7,0,0,1-1.776-.5c-.108-.068-.162-.029-.171.093a2.8,2.8,0,0,0,.029.527,4.719,4.719,0,0,0,2.908,3.762,2.706,2.706,0,0,0,.59.18,5.26,5.26,0,0,1-1.742.054c-.127-.025-.175.039-.127.161a4.9,4.9,0,0,0,3.66,3.065c.166.029.332.029.5.067-.01.015-.02.015-.029.029a5.8,5.8,0,0,1-2.5,1.325,8.947,8.947,0,0,1-3.8.486c-.2-.03-.247-.027-.3,0s-.007.084.059.136c.259.171.522.322.791.469a12.5,12.5,0,0,0,2.537,1.015,13.516,13.516,0,0,0,13.121-3.068c2.689-2.672,3.631-6.356,3.631-10.045,0-.144.17-.224.272-.3A8.838,8.838,0,0,0,294.247,679a.54.54,0,0,0,.11-.356v-.019C294.357,678.563,294.364,678.581,294.273,678.622Z" transform="translate(-242.03 -649.42)" fill="#74fff5"/>
  </g>
</svg>
