<svg xmlns="http://www.w3.org/2000/svg" xmlns:xlink="http://www.w3.org/1999/xlink" width="40.324" height="36.388" viewBox="0 0 40.324 36.388">
  <defs>
    <filter id="Path_202" x="0" y="0" width="40.324" height="36.388" filterUnits="userSpaceOnUse">
      <feOffset dy="3" input="SourceAlpha"/>
      <feGaussianBlur stdDeviation="3" result="blur"/>
      <feFlood flood-opacity="0.737"/>
      <feComposite operator="in" in2="blur"/>
      <feComposite in="SourceGraphic"/>
    </filter>
  </defs>
  <g transform="matrix(1, 0, 0, 1, 0, 0)" filter="url(#Path_202)">
    <g id="Path_202-2" data-name="Path 202" transform="translate(-263.03 -670.42)" fill="none" stroke-linecap="square" stroke-linejoin="round">
      <path d="M294.273,678.622a9.184,9.184,0,0,1-2.255.644c.364-.061.9-.719,1.113-.985a4.152,4.152,0,0,0,.751-1.368c.019-.039.034-.088,0-.118a.129.129,0,0,0-.12.01,11.531,11.531,0,0,1-2.679,1.025.177.177,0,0,1-.184-.049,2.3,2.3,0,0,0-.235-.239,4.727,4.727,0,0,0-1.3-.795,4.521,4.521,0,0,0-1.99-.321,4.759,4.759,0,0,0-1.888.533,4.872,4.872,0,0,0-1.523,1.244,4.681,4.681,0,0,0-.91,1.822A4.938,4.938,0,0,0,283,681.95c.015.108.005.122-.092.108a14.306,14.306,0,0,1-9.2-4.685c-.108-.122-.166-.122-.254.01a4.667,4.667,0,0,0,.8,5.514c.18.171.366.342.566.5a4.7,4.7,0,0,1-1.776-.5c-.108-.068-.162-.029-.171.093a2.8,2.8,0,0,0,.029.527,4.719,4.719,0,0,0,2.908,3.762,2.706,2.706,0,0,0,.59.18,5.26,5.26,0,0,1-1.742.054c-.127-.025-.175.039-.127.161a4.9,4.9,0,0,0,3.66,3.065c.166.029.332.029.5.067-.01.015-.02.015-.029.029a5.8,5.8,0,0,1-2.5,1.325,8.947,8.947,0,0,1-3.8.486c-.2-.03-.247-.027-.3,0s-.007.084.059.136c.259.171.522.322.791.469a12.5,12.5,0,0,0,2.537,1.015,13.516,13.516,0,0,0,13.121-3.068c2.689-2.672,3.631-6.356,3.631-10.045,0-.144.17-.224.272-.3A8.838,8.838,0,0,0,294.247,679a.54.54,0,0,0,.11-.356v-.019C294.357,678.563,294.364,678.581,294.273,678.622Z" stroke="none"/>
      <path d="M 287.6648864746094 677.41796875 C 287.5892028808594 677.41796875 287.5126342773438 677.4204711914063 287.4379272460938 677.4252319335938 C 286.9281005859375 677.4584350585938 286.4130249023438 677.6043090820313 285.9484558105469 677.8470458984375 C 285.4839782714844 678.08984375 285.0656127929688 678.4313354492188 284.739013671875 678.8340454101563 C 284.3961181640625 679.257568359375 284.1486511230469 679.752197265625 284.0234985351563 680.2642822265625 C 283.9139709472656 680.7130126953125 283.9043273925781 681.2023315429688 283.9931945800781 681.8041381835938 C 283.9937438964844 681.8076782226563 283.9942321777344 681.8112182617188 283.9947204589844 681.8147583007813 C 284.0430297851563 682.168212890625 283.961669921875 682.4686889648438 283.7529296875 682.7079467773438 C 283.5562133789063 682.933349609375 283.267578125 683.0626220703125 282.9610595703125 683.0626220703125 C 282.8781433105469 683.0626220703125 282.8081359863281 683.0535278320313 282.7644653320313 683.0469970703125 C 279.0485534667969 682.4939575195313 276.1968383789063 681.2035522460938 273.9022827148438 679.01904296875 C 273.8570556640625 679.360595703125 273.8635559082031 679.7296142578125 273.9249877929688 680.107177734375 C 274.0580444335938 680.9249267578125 274.4365234375 681.6963500976563 274.9391784667969 682.1724853515625 C 275.083740234375 682.31005859375 275.2552795410156 682.4693603515625 275.431640625 682.6073608398438 C 275.739013671875 682.8479614257813 275.8782958984375 683.2454223632813 275.7883605957031 683.625244140625 C 275.6984252929688 684.005126953125 275.3956909179688 684.2978515625 275.0130615234375 684.3750610351563 C 274.9425354003906 684.3892822265625 274.870361328125 684.396240234375 274.7924194335938 684.396240234375 C 274.6593322753906 684.396240234375 274.4251708984375 684.3728637695313 274.1354370117188 684.3161010742188 C 274.5147399902344 685.2368774414063 275.2576904296875 686.0009765625 276.1614379882813 686.3446655273438 C 276.1726989746094 686.3489379882813 276.1838684082031 686.3534545898438 276.1949768066406 686.358154296875 C 276.3700256347656 686.4320678710938 276.4907836914063 686.461669921875 276.5612487792969 686.4734497070313 C 277.0336303710938 686.552490234375 277.3836364746094 686.9554443359375 277.3958129882813 687.4342651367188 C 277.4080200195313 687.9130859375 277.0789794921875 688.3333129882813 276.6112365722656 688.436279296875 C 276.4649963378906 688.468505859375 276.3202514648438 688.4957885742188 276.1592102050781 688.5157470703125 C 276.7914123535156 689.2261962890625 277.6219482421875 689.534912109375 278.4000549316406 689.7607421875 C 278.4291076660156 689.7643432617188 278.4628295898438 689.7677001953125 278.4978332519531 689.7711791992188 C 278.6117248535156 689.782470703125 278.7535095214844 689.7965087890625 278.9125366210938 689.8335571289063 C 279.2304077148438 689.9076538085938 279.4921569824219 690.1322021484375 279.6137084960938 690.4351196289063 C 279.7352600097656 690.738037109375 279.7013244628906 691.0812377929688 279.5227661132813 691.3544921875 C 279.4935913085938 691.399169921875 279.4610900878906 691.4414672851563 279.4254455566406 691.4811401367188 C 278.8664245605469 692.2318115234375 277.7261352539063 692.675537109375 276.6011657714844 693.0657348632813 L 276.4862365722656 693.105712890625 C 276.2533874511719 693.1871337890625 276.0195007324219 693.2600708007813 275.7850036621094 693.324462890625 C 276.9669189453125 693.6439208984375 278.1829833984375 693.8057861328125 279.4009704589844 693.8057861328125 C 282.7046508789063 693.8057861328125 285.7092590332031 692.62841796875 287.8612365722656 690.4906616210938 C 289.0166931152344 689.3423461914063 289.8847351074219 687.9132080078125 290.441162109375 686.2428588867188 C 290.94287109375 684.73681640625 291.197265625 683.0249633789063 291.197265625 681.1547241210938 C 291.197265625 680.5045166015625 291.6869812011719 680.176513671875 291.847900390625 680.0687255859375 C 291.8561706542969 680.0631713867188 291.8643188476563 680.057861328125 291.8719177246094 680.0525512695313 C 291.9548950195313 679.9901123046875 292.0365295410156 679.92529296875 292.1172485351563 679.8576049804688 L 292.0181274414063 679.2662963867188 L 291.9134521484375 678.6400146484375 C 291.71923828125 678.6979370117188 291.5219421386719 678.751953125 291.3209838867188 678.80224609375 C 291.2222290039063 678.8267822265625 291.1220092773438 678.8392333984375 291.0230712890625 678.8392333984375 C 290.706787109375 678.8392333984375 290.4083251953125 678.7130737304688 290.1827087402344 678.4840698242188 C 290.1714782714844 678.47265625 290.1605224609375 678.4609985351563 290.1498413085938 678.4490966796875 L 290.1428527832031 678.4412231445313 C 290.09912109375 678.392333984375 290.0447082519531 678.3314819335938 290.02099609375 678.311767578125 C 290.0180969238281 678.3093872070313 290.0152282714844 678.3069458007813 290.0123596191406 678.3045043945313 C 289.6901245117188 678.0302734375 289.3544921875 677.82421875 288.9855651855469 677.6741333007813 C 288.5744323730469 677.506591796875 288.1177368164063 677.41796875 287.6648864746094 677.41796875 M 287.6648864746094 676.41796875 C 288.2452392578125 676.41796875 288.8254699707031 676.5289916992188 289.3630065917969 676.7481079101563 C 289.8415832519531 676.9427490234375 290.2654418945313 677.206787109375 290.6604614257813 677.54296875 C 290.7433166503906 677.6118774414063 290.8168640136719 677.69482421875 290.8951110839844 677.7822875976563 C 290.9313049316406 677.8190307617188 290.9723510742188 677.8392333984375 291.0230712890625 677.8392333984375 C 291.0406799316406 677.8392333984375 291.0594482421875 677.8367919921875 291.07958984375 677.831787109375 C 292.0201416015625 677.5964965820313 292.9038391113281 677.2642822265625 293.7581176757813 676.806396484375 C 293.7822570800781 676.7943115234375 293.8035278320313 676.785888671875 293.8280334472656 676.785888671875 C 293.8429565429688 676.785888671875 293.8590698242188 676.7890014648438 293.8777465820313 676.7962646484375 C 293.91650390625 676.826416015625 293.90185546875 676.8751831054688 293.8824768066406 676.9139404296875 C 293.7293395996094 677.4132080078125 293.4580078125 677.8759155273438 293.131103515625 678.28173828125 C 292.9171752929688 678.5477294921875 292.3818054199219 679.2055053710938 292.0181274414063 679.2662963867188 C 292.7834777832031 679.1380004882813 293.5642700195313 678.9428100585938 294.2734985351563 678.6220092773438 C 294.322998046875 678.5997924804688 294.3433532714844 678.5842895507813 294.3516540527344 678.5842895507813 C 294.3586120605469 678.5842895507813 294.3570861816406 678.5951538085938 294.3570861816406 678.6220092773438 L 294.3570861816406 678.6412963867188 C 294.3570861816406 678.6994018554688 294.3644104003906 678.839111328125 294.2467651367188 678.99755859375 C 293.7253112792969 679.699462890625 293.1692504882813 680.3284912109375 292.4692687988281 680.8545532226563 C 292.3677062988281 680.9308471679688 292.197265625 681.0104370117188 292.197265625 681.1547241210938 C 292.197265625 684.8441162109375 291.2546997070313 688.528076171875 288.5661315917969 691.199951171875 C 286.1102294921875 693.6396484375 282.7738952636719 694.8057861328125 279.4009704589844 694.8057861328125 C 278.0707702636719 694.8057861328125 276.7347717285156 694.6243896484375 275.4449462890625 694.2681884765625 C 274.5619506835938 694.0242309570313 273.7169494628906 693.6825561523438 272.907470703125 693.2527465820313 C 272.6387634277344 693.1064453125 272.3754272460938 692.955322265625 272.1166687011719 692.7841796875 C 272.0511779785156 692.7314453125 272.0016784667969 692.6825561523438 272.0578918457031 692.6477661132813 C 272.0862731933594 692.6337890625 272.111328125 692.626220703125 272.156494140625 692.626220703125 C 272.1995544433594 692.626220703125 272.2608642578125 692.633056640625 272.3607177734375 692.6477661132813 C 272.6218872070313 692.6735229492188 272.884521484375 692.68603515625 273.1476135253906 692.68603515625 C 274.16943359375 692.68603515625 275.1966552734375 692.4972534179688 276.1561889648438 692.1617431640625 C 276.8200073242188 691.9298095703125 278.2451782226563 691.4639282226563 278.6562805175781 690.8369140625 C 278.6655883789063 690.8228149414063 278.6756286621094 690.8228149414063 278.6856384277344 690.8074951171875 C 278.5192565917969 690.7687377929688 278.3534545898438 690.7687377929688 278.18701171875 690.7400512695313 C 276.9483337402344 690.3858032226563 275.2938537597656 689.7639770507813 274.5271911621094 687.6751708984375 C 274.4859924316406 687.5703735351563 274.5153198242188 687.5086669921875 274.6043090820313 687.5086669921875 C 274.6192626953125 687.5086669921875 274.6358947753906 687.5103759765625 274.6541748046875 687.5139770507813 C 275.0046997070313 687.541259765625 275.2779541015625 687.5526123046875 275.5001831054688 687.5526123046875 C 275.9246520996094 687.5526123046875 276.1627502441406 687.5111083984375 276.3961486816406 687.459716796875 C 276.1963195800781 687.42626953125 275.9910888671875 687.3575439453125 275.8059387207031 687.2793579101563 C 274.2450256347656 686.6856689453125 273.1053161621094 685.1630249023438 272.8974609375 683.5172119140625 C 272.8734130859375 683.3265991210938 272.8580017089844 683.1655883789063 272.8680725097656 682.9898071289063 C 272.8742980957031 682.9081420898438 272.9006958007813 682.863525390625 272.9498291015625 682.863525390625 C 272.9739990234375 682.863525390625 273.0036926269531 682.8743286132813 273.0391540527344 682.8968505859375 C 273.7916259765625 683.2862548828125 274.6311340332031 683.396240234375 274.7923889160156 683.396240234375 C 274.8030395507813 683.396240234375 274.8107604980469 683.395751953125 274.8152770996094 683.3948364257813 C 274.6154174804688 683.2384033203125 274.4295654296875 683.0679931640625 274.249755859375 682.8968505859375 C 272.8961181640625 681.6146850585938 272.3706970214844 679.0062255859375 273.45361328125 677.3825073242188 C 273.4986267089844 677.3151245117188 273.5357666015625 677.2821044921875 273.57568359375 677.2821044921875 C 273.614013671875 677.2821044921875 273.6549072265625 677.3126220703125 273.7076721191406 677.37255859375 C 276.1829528808594 680.1935424804688 279.2330932617188 681.5104370117188 282.9116516113281 682.057861328125 C 282.931640625 682.0608520507813 282.9479064941406 682.0626220703125 282.9610595703125 682.0626220703125 C 283.0120849609375 682.0626220703125 283.015625 682.0358276367188 283.0039367675781 681.9501953125 C 282.9082946777344 681.3025512695313 282.8955688476563 680.6681518554688 283.0520324707031 680.0271606445313 C 283.2144775390625 679.3624877929688 283.5320129394531 678.735595703125 283.9618530273438 678.2047729492188 C 284.3776245117188 677.6920776367188 284.899658203125 677.2669067382813 285.4851989746094 676.9608154296875 C 286.0687866210938 676.6558837890625 286.7152099609375 676.4701538085938 287.3730163574219 676.4273681640625 C 287.47021484375 676.4210815429688 287.5675048828125 676.41796875 287.6648864746094 676.41796875 Z" stroke="none" fill="#fff"/>
    </g>
  </g>
</svg>
